<svg width="488" height="348" viewBox="0 0 488 348" fill="none" xmlns="http://www.w3.org/2000/svg">
<g clip-path="url(#clip0_7_118)">
<path opacity="0.48" d="M458.711 12.8873H68.6792C63.2099 12.8873 58.7762 17.0823 58.7762 22.2571V251.895C58.7762 257.069 63.2099 261.264 68.6792 261.264H458.711C464.18 261.264 468.614 257.069 468.614 251.895V22.2571C468.614 17.0823 464.18 12.8873 458.711 12.8873Z" fill="#EE6C4D"/>
<path opacity="0.18" d="M460.504 279.397C460.205 287.531 458.235 295.812 453.422 302.554C447.359 311.044 437.511 316.3 427.973 321.241L400.931 335.322C389.081 341.499 376.589 347.822 363.079 348C353.519 348.136 344.269 345.152 335.074 342.65C292.132 330.925 246.899 329.281 202.507 332.244C179.769 333.762 157.142 336.432 134.614 339.646C116.59 342.179 94.9579 350.607 78.7038 340.63C61.0003 329.742 50.1347 312.112 40.1322 294.995C31.4242 280.14 22.5945 264.918 19.7177 248.157C15.2918 222.257 25.8918 195.655 42.4779 174.612C47.4659 168.328 52.912 162.381 58.7762 156.815V251.905C58.7762 254.395 59.8178 256.784 61.6734 258.549C63.5289 260.314 66.0477 261.313 68.6792 261.327H458.7C460.089 267.257 460.694 273.326 460.504 279.397Z" fill="#EE6C4D"/>
<path opacity="0.18" d="M314.781 12.8978H210.496C214.421 10.074 218.685 7.69857 223.198 5.82073C231.442 2.41831 240.426 0.900304 249.389 0.293102C271.938 -1.24584 294.555 3.46521 314.781 12.8978Z" fill="#EE6C4D"/>
<path d="M219.359 230.004C220.375 231.278 221.596 232.395 222.977 233.312C225.03 234.36 227.291 234.994 229.616 235.176L264.935 240.211C265.286 240.234 265.625 240.342 265.919 240.525C266.115 240.726 266.263 240.965 266.353 241.225C266.443 241.486 266.472 241.761 266.439 242.033C266.603 248.289 265.711 254.531 263.795 260.521C263.694 261.011 263.444 261.462 263.076 261.819C262.599 262.124 262.036 262.285 261.46 262.28C249.577 263.233 237.638 262.929 225.721 262.625C223.717 262.652 221.718 262.445 219.768 262.008C216.449 261.128 213.738 258.982 211.237 256.773C205.871 252.052 184.151 233.071 182.834 230.496C181.088 226.807 179.681 222.982 178.63 219.064C177.523 215.295 185.611 214.824 185.445 210.908C185.329 208.201 185.672 205.494 186.463 202.889C187.052 200.567 188.273 198.43 190.004 196.692C191.221 195.645 189.34 188.547 191.022 188.463C192.969 194.744 201.777 207.307 205.605 212.688C209.861 218.688 214.452 224.468 219.359 230.004Z" fill="#EE6C4D"/>
<path d="M219.359 230.004C220.375 231.278 221.596 232.395 222.977 233.312C225.03 234.36 227.291 234.994 229.616 235.176L264.935 240.211C265.286 240.234 265.625 240.342 265.919 240.525C266.115 240.726 266.263 240.965 266.353 241.225C266.443 241.486 266.472 241.761 266.439 242.033C266.603 248.289 265.711 254.531 263.795 260.521C263.694 261.011 263.444 261.462 263.076 261.819C262.599 262.124 262.036 262.285 261.46 262.28C249.577 263.233 237.638 262.929 225.721 262.625C223.717 262.652 221.718 262.445 219.768 262.008C216.449 261.128 213.738 258.982 211.237 256.773C205.871 252.052 184.151 233.071 182.834 230.496C181.088 226.807 179.681 222.982 178.63 219.064C177.523 215.295 185.611 214.824 185.445 210.908C185.329 208.201 185.672 205.494 186.463 202.889C187.052 200.567 188.273 198.43 190.004 196.692C191.221 195.645 189.34 188.547 191.022 188.463C192.969 194.744 201.777 207.307 205.605 212.688C209.861 218.688 214.452 224.468 219.359 230.004Z" fill="url(#paint0_linear_7_118)"/>
<path d="M129.989 176.968C127.61 178.974 125.391 181.144 123.35 183.459C118.459 189.143 115.206 195.906 112.175 202.648C104.109 220.592 97.0824 239.782 99.1736 259.181C99.2132 260.348 99.547 261.49 100.147 262.51C101.1 263.665 102.437 264.481 103.943 264.824C107.826 265.996 111.976 266.049 116.114 266.08C132.058 266.216 148.024 266.352 163.958 265.619C166.425 265.504 169.036 265.326 171.083 264.007C172.579 262.924 173.771 261.512 174.558 259.893C178.84 252.271 180.09 243.457 183.409 235.437C187.835 224.968 200.007 215.452 197.44 204.418C186.463 157.569 135.012 172.644 129.989 176.968Z" fill="#EE6C4D"/>
<path d="M129.989 176.968C127.61 178.974 125.391 181.144 123.35 183.459C118.459 189.143 115.206 195.906 112.175 202.648C104.109 220.592 97.0824 239.782 99.1736 259.181C99.2132 260.348 99.547 261.49 100.147 262.51C101.1 263.665 102.437 264.481 103.943 264.824C107.826 265.996 111.976 266.049 116.114 266.08C132.058 266.216 148.024 266.352 163.958 265.619C166.425 265.504 169.036 265.326 171.083 264.007C172.579 262.924 173.771 261.512 174.558 259.893C178.84 252.271 180.09 243.457 183.409 235.437C187.835 224.968 200.007 215.452 197.44 204.418C186.463 157.569 135.012 172.644 129.989 176.968Z" fill="url(#paint1_linear_7_118)"/>
<path d="M202.043 138.159C200.173 146.754 198.214 155.58 193.191 162.981C191.359 165.97 188.711 168.437 185.523 170.121C182.281 171.66 178.165 171.87 175.133 169.985C173.617 169.053 171.958 167.588 170.309 168.279C169.114 168.792 168.727 170.195 168.561 171.419C168.145 174.428 168.19 177.478 168.693 180.475C168.899 181.319 168.951 182.19 168.848 183.05C168.634 183.847 168.18 184.567 167.542 185.125C166.904 185.682 166.108 186.053 165.252 186.191C163.541 186.427 161.793 186.168 160.24 185.448C157.824 184.425 155.709 182.858 154.081 180.883C152.453 178.909 151.361 176.587 150.901 174.12C150.669 172.455 150.558 170.776 150.569 169.095C150.359 161.641 149.109 154.219 149.363 146.775C149.618 139.332 151.576 131.585 156.921 126.089C160.007 123.096 163.673 120.693 167.72 119.012C173.75 116.29 180.477 114.374 187.072 115.368C189.696 115.761 192.199 116.686 194.409 118.081C196.619 119.477 198.484 121.308 199.874 123.45C203.326 128.465 203.337 132.203 202.043 138.159Z" fill="#FFDAD2"/>
<path d="M218.518 119.221C218.967 115.727 218.282 112.187 216.552 109.072C214.823 105.956 212.131 103.412 208.836 101.78C205.904 100.398 202.64 99.8114 199.475 99.0158C192.062 97.1314 184.947 94.0116 177.346 93.3416C169.745 92.6716 161.003 95.1946 157.618 101.717C156.998 102.91 156.389 104.355 155.028 104.669C154.285 104.745 153.533 104.681 152.815 104.481C147.737 103.633 143.167 107.736 140.877 112.102C137.181 119.169 136.993 127.408 137.801 135.249C138.542 142.504 140.5 150.345 146.652 154.763C147.261 155.203 148.157 155.601 148.744 155.13C149.012 154.864 149.18 154.522 149.219 154.156C149.838 151.405 150.069 148.589 149.905 145.781C149.784 143.687 149.43 141.468 150.005 139.405C150.58 137.343 152.428 135.385 154.685 135.448C156.777 135.448 158.459 137.29 158.979 139.217C159.349 141.178 159.27 143.192 158.746 145.121C159.078 145.906 160.24 144.964 160.439 144.148C161.966 137.573 162.309 130.213 167.133 125.303C168.115 126.265 168.829 127.441 169.213 128.727C169.935 128.02 170.852 127.519 171.859 127.282C172.867 127.046 173.925 127.082 174.912 127.387C176.312 127.963 177.599 128.76 178.718 129.742C190.469 138.421 216.05 135.846 218.518 119.221Z" fill="#3F3D56"/>
<path d="M133.375 187.688C129.657 190.243 127.842 194.734 127.732 199.068C127.621 203.402 132.467 230.904 137.037 238.714C140.578 244.786 147.958 260.636 159.167 265.012C162.486 266.31 211.558 265.766 234.329 263.431C234.186 258.333 233.92 253.235 233.566 248.136C233.599 247.464 233.384 246.801 232.957 246.262C232.382 245.697 231.563 242.001 230.744 242.001C217.467 242.054 204.078 245.896 190.801 246.189C188.872 246.307 186.936 246.198 185.036 245.864C183.481 245.497 181.99 244.919 180.61 244.148C170.364 238.662 164.699 227.889 160.694 217.41C157.629 209.328 155.161 200.963 150.735 193.415C149.164 190.724 147.759 188.107 144.661 186.924C141.02 185.532 136.749 185.375 133.375 187.688Z" fill="#EE6C4D"/>
<path d="M133.375 187.688C129.657 190.243 127.842 194.734 127.732 199.068C127.621 203.402 132.467 230.904 137.037 238.714C140.578 244.786 147.958 260.636 159.167 265.012C162.486 266.31 211.558 265.766 234.329 263.431C234.186 258.333 233.92 253.235 233.566 248.136C233.599 247.464 233.384 246.801 232.957 246.262C232.382 245.697 231.563 242.001 230.744 242.001C217.467 242.054 204.078 245.896 190.801 246.189C188.872 246.307 186.936 246.198 185.036 245.864C183.481 245.497 181.99 244.919 180.61 244.148C170.364 238.662 164.699 227.889 160.694 217.41C157.629 209.328 155.161 200.963 150.735 193.415C149.164 190.724 147.759 188.107 144.661 186.924C141.02 185.532 136.749 185.375 133.375 187.688Z" fill="url(#paint2_linear_7_118)"/>
<path d="M232.382 241.017C239.275 240.4 246.932 241.855 251.303 246.932C251.763 247.395 252.064 247.979 252.166 248.607C252.161 249.173 251.976 249.724 251.635 250.188C249.057 254.24 243.458 255.203 238.755 256.805C236.309 257.634 233.973 258.73 231.796 260.071C230.57 260.991 229.152 261.655 227.635 262.018C224.316 262.489 221.561 259.684 220.056 256.878C218.33 253.737 215.63 247.288 218.949 244.315C221.66 241.96 228.974 241.31 232.382 241.017Z" fill="#FFDAD2"/>
<path d="M289.465 239.405C290.692 240.065 291.747 240.978 292.552 242.075C292.945 242.63 293.178 243.272 293.229 243.939C293.279 244.605 293.145 245.273 292.84 245.875C292.318 246.617 291.606 247.222 290.771 247.634C284.652 251.078 277.15 251.696 270.954 254.962C269.683 255.836 268.225 256.436 266.683 256.721C265.776 256.74 264.878 256.561 264.056 256.197C263.235 255.834 262.513 255.297 261.947 254.627C260.819 253.294 259.953 251.78 259.391 250.157C252.144 232.15 279.042 233.124 289.465 239.405Z" fill="#FFDAD2"/>
<path d="M114.122 231.365H142.791V253.643C142.791 255.725 141.916 257.722 140.36 259.195C138.804 260.667 136.693 261.495 134.492 261.495H122.421C120.22 261.495 118.109 260.667 116.553 259.195C114.996 257.722 114.122 255.725 114.122 253.643V231.365Z" fill="white"/>
<path d="M140.854 236.767H149.54C151.374 236.767 153.133 237.456 154.43 238.683C155.727 239.91 156.456 241.575 156.456 243.31V246.021C156.456 247.757 155.727 249.421 154.43 250.648C153.133 251.875 151.374 252.565 149.54 252.565H140.854V236.767Z" stroke="white" stroke-width="3.03781" stroke-miterlimit="10"/>
<path d="M463.137 261.013H74.787C71.3894 261.013 68.635 263.617 68.635 266.829C68.635 270.04 71.3894 272.644 74.787 272.644H463.137C466.535 272.644 469.289 270.04 469.289 266.829C469.289 263.617 466.535 261.013 463.137 261.013Z" fill="#EE6C4D"/>
<path d="M391.747 272.822H172.234V344.859H391.747V272.822Z" fill="#EE6C4D"/>
<path d="M173.728 272.822H87.5004V344.859H173.728V272.822Z" fill="#EE6C4D"/>
<path d="M391.759 272.822H173.684V344.859H391.759V272.822Z" fill="url(#paint3_linear_7_118)"/>
<path d="M173.728 272.822H87.5004V344.859H173.728V272.822Z" fill="url(#paint4_linear_7_118)"/>
<path opacity="0.18" d="M468.603 22.2676V68.1218H58.7762V22.2676C58.7762 19.7777 59.8178 17.3891 61.6734 15.6236C63.529 13.8581 66.0477 12.8593 68.6792 12.8455H458.7C461.332 12.8593 463.85 13.8581 465.706 15.6236C467.561 17.3891 468.603 19.7777 468.603 22.2676Z" fill="#EE6C4D"/>
<path d="M235.668 260.814H377.784C381.768 260.814 384.998 257.758 384.998 253.988C384.998 250.219 381.768 247.163 377.784 247.163L235.668 247.163C231.684 247.163 228.454 250.219 228.454 253.988C228.454 257.758 231.684 260.814 235.668 260.814Z" fill="#EE6C4D"/>
<path d="M235.668 260.814H377.784C381.768 260.814 384.998 257.758 384.998 253.988C384.998 250.219 381.768 247.163 377.784 247.163L235.668 247.163C231.684 247.163 228.454 250.219 228.454 253.988C228.454 257.758 231.684 260.814 235.668 260.814Z" fill="url(#paint5_linear_7_118)"/>
<path d="M284.951 260.835H394.016L422.784 191.813C423.166 190.893 423.305 189.899 423.188 188.917C423.072 187.935 422.704 186.994 422.116 186.177C421.528 185.36 420.739 184.691 419.816 184.229C418.893 183.766 417.865 183.523 416.82 183.522H331.234C327.094 183.529 323.052 184.712 319.631 186.919C316.21 189.125 313.568 192.252 312.048 195.896L284.951 260.835Z" fill="#EE6C4D"/>
<path d="M290.494 260.908H394.082L421.401 195.341C421.765 194.468 421.899 193.523 421.789 192.589C421.679 191.656 421.33 190.762 420.771 189.986C420.212 189.209 419.461 188.574 418.584 188.135C417.706 187.697 416.728 187.468 415.736 187.468H334.454C330.517 187.467 326.67 188.586 323.414 190.681C320.158 192.776 317.643 195.749 316.197 199.215L290.494 260.908Z" fill="#EE6C4D"/>
<path d="M290.494 260.908H394.082L421.401 195.341C421.765 194.468 421.899 193.523 421.789 192.589C421.679 191.656 421.33 190.762 420.771 189.986C420.212 189.209 419.461 188.574 418.584 188.135C417.706 187.697 416.728 187.468 415.736 187.468H334.454C330.517 187.467 326.67 188.586 323.414 190.681C320.158 192.776 317.643 195.749 316.197 199.215L290.494 260.908Z" fill="url(#paint6_linear_7_118)"/>
<path opacity="0.51" d="M407.769 161.861H254.412V170.027H407.769V161.861Z" fill="white"/>
<path d="M363.433 147.885H254.412V156.051H363.433V147.885Z" fill="white"/>
<path d="M451.32 147.885H378.337V156.051H451.32V147.885Z" fill="white"/>
<path d="M451.065 96.1891H338.858V103.444H451.065V96.1891Z" fill="white"/>
<path opacity="0.51" d="M435.398 109.076H315.356V116.331H435.398V109.076Z" fill="white"/>
<path d="M330.294 96.1891H256.492V103.444H330.294V96.1891Z" fill="white"/>
<path d="M451.066 121.576H288.868V128.831H451.066V121.576Z" fill="white"/>
<path opacity="0.51" d="M280.303 121.576H256.492V128.831H280.303V121.576Z" fill="white"/>
<path opacity="0.51" d="M451.066 134.464H344.003V141.719H451.066V134.464Z" fill="white"/>
<path d="M330.294 134.464H256.492V141.719H330.294V134.464Z" fill="white"/>
<path d="M303.949 108.773H256.492V116.028H303.949V108.773Z" fill="white"/>
<path d="M410.026 71.765H297.819V79.02H410.026V71.765Z" fill="white"/>
<path opacity="0.51" d="M394.359 84.6523H274.317V91.9074H394.359V84.6523Z" fill="white"/>
<path d="M289.266 71.765H215.464V79.02H289.266V71.765Z" fill="white"/>
<path d="M409.031 56.742H296.823V63.997H409.031V56.742Z" fill="white"/>
<path d="M288.27 43.1113H214.468V50.3663H288.27V43.1113Z" fill="white"/>
<path d="M288.27 30.6742H214.468V37.9292H288.27V30.6742Z" fill="white"/>
<path d="M262.921 84.3488H215.464V91.6038H262.921V84.3488Z" fill="white"/>
</g>
<defs>
<linearGradient id="paint0_linear_7_118" x1="184.184" y1="217.598" x2="238.971" y2="239.665" gradientUnits="userSpaceOnUse">
<stop offset="0.01"/>
<stop offset="0.12" stop-opacity="0.75"/>
<stop offset="1" stop-opacity="0"/>
</linearGradient>
<linearGradient id="paint1_linear_7_118" x1="155.947" y1="275.628" x2="140.799" y2="179.074" gradientUnits="userSpaceOnUse">
<stop offset="0.01"/>
<stop offset="0.12" stop-opacity="0.75"/>
<stop offset="1" stop-opacity="0"/>
</linearGradient>
<linearGradient id="paint2_linear_7_118" x1="161.966" y1="270.268" x2="187.286" y2="210.046" gradientUnits="userSpaceOnUse">
<stop offset="0.01"/>
<stop offset="0.12" stop-opacity="0.75"/>
<stop offset="1" stop-opacity="0"/>
</linearGradient>
<linearGradient id="paint3_linear_7_118" x1="309.691" y1="223.094" x2="266.672" y2="375.862" gradientUnits="userSpaceOnUse">
<stop offset="0.01"/>
<stop offset="0.12" stop-opacity="0.75"/>
<stop offset="1" stop-opacity="0"/>
</linearGradient>
<linearGradient id="paint4_linear_7_118" x1="113.104" y1="230.276" x2="154.614" y2="438.333" gradientUnits="userSpaceOnUse">
<stop offset="0.01"/>
<stop offset="0.12" stop-opacity="0.75"/>
<stop offset="1" stop-opacity="0"/>
</linearGradient>
<linearGradient id="paint5_linear_7_118" x1="306.427" y1="267.242" x2="307.012" y2="238.744" gradientUnits="userSpaceOnUse">
<stop offset="0.01"/>
<stop offset="0.12" stop-opacity="0.75"/>
<stop offset="1" stop-opacity="0"/>
</linearGradient>
<linearGradient id="paint6_linear_7_118" x1="353.751" y1="284.851" x2="357.754" y2="177.746" gradientUnits="userSpaceOnUse">
<stop offset="0.01"/>
<stop offset="0.12" stop-opacity="0.75"/>
<stop offset="1" stop-opacity="0"/>
</linearGradient>
<clipPath id="clip0_7_118">
<rect width="488" height="348" fill="white"/>
</clipPath>
</defs>
</svg>
